<svg width="64" height="64" viewBox="0 0 64 64" fill="none" xmlns="http://www.w3.org/2000/svg">
  <defs>
    <linearGradient id="bgGradient" x1="0%" y1="0%" x2="100%" y2="100%">
      <stop offset="0%" style="stop-color:#3B82F6;stop-opacity:1" />
      <stop offset="100%" style="stop-color:#A855F7;stop-opacity:1" />
    </linearGradient>
    <linearGradient id="accentGradient" x1="0%" y1="0%" x2="100%" y2="100%">
      <stop offset="0%" style="stop-color:#60A5FA;stop-opacity:1" />
      <stop offset="100%" style="stop-color:#D946EF;stop-opacity:1" />
    </linearGradient>
    <filter id="shadow" x="-50%" y="-50%" width="200%" height="200%">
      <feGaussianBlur in="SourceAlpha" stdDeviation="1"/>
      <feOffset dx="0" dy="1" result="offsetblur"/>
      <feComponentTransfer>
        <feFuncA type="linear" slope="0.2"/>
      </feComponentTransfer>
      <feMerge>
        <feMergeNode/>
        <feMergeNode in="SourceGraphic"/>
      </feMerge>
    </filter>
  </defs>
  
  <!-- Background rounded square with gradient -->
  <rect x="6" y="6" width="52" height="52" rx="8" fill="url(#bgGradient)" filter="url(#shadow)"/>
  
  <!-- Multiple label sheets being "squeezed" together -->
  <!-- Left label (slightly tilted) -->
  <rect x="12" y="18" width="18" height="28" rx="2" fill="white" opacity="0.95" transform="rotate(-4 21 32)"/>
  
  <!-- Middle label (straight, main focus) -->
  <rect x="23" y="16" width="18" height="32" rx="2" fill="white" filter="url(#shadow)"/>
  
  <!-- Right label (slightly tilted opposite direction) -->
  <rect x="34" y="18" width="18" height="28" rx="2" fill="white" opacity="0.95" transform="rotate(4 43 32)"/>
  
  <!-- Compression arrows/indicators -->
  <path d="M 12 32 L 18 32" stroke="url(#accentGradient)" stroke-width="2.5" stroke-linecap="round"/>
  <path d="M 52 32 L 46 32" stroke="url(#accentGradient)" stroke-width="2.5" stroke-linecap="round"/>
  
  <!-- Label details on middle label -->
  <rect x="26" y="21" width="12" height="2" rx="1" fill="url(#accentGradient)" opacity="0.6"/>
  <rect x="26" y="26" width="9" height="1.5" rx="0.75" fill="#3B82F6" opacity="0.4"/>
  <rect x="26" y="30" width="10" height="1.5" rx="0.75" fill="#3B82F6" opacity="0.4"/>
  
  <!-- Barcode-like element -->
  <g opacity="0.4">
    <rect x="27" y="38" width="1.5" height="6" fill="#3B82F6"/>
    <rect x="29.5" y="38" width="1" height="6" fill="#3B82F6"/>
    <rect x="31.5" y="38" width="1.5" height="6" fill="#3B82F6"/>
    <rect x="34" y="38" width="1" height="6" fill="#3B82F6"/>
    <rect x="36" y="38" width="1.5" height="6" fill="#3B82F6"/>
  </g>
</svg> 